<svg width="175" height="133" viewBox="0 0 175 133" fill="none" xmlns="http://www.w3.org/2000/svg">
<path d="M84.9529 81.4322C95.7367 68.935 94.3477 50.062 81.8505 39.2782C69.3533 28.4944 50.4803 29.8834 39.6965 42.3806C28.9127 54.8778 30.3016 73.7508 42.7989 84.5346C55.2961 95.3184 74.1691 93.9295 84.9529 81.4322Z" fill="#FAAF40"/>
<path d="M62.331 23.925C60.25 23.925 58.564 22.239 58.564 20.158V3.767C58.564 1.686 60.25 0 62.331 0C64.412 0 66.098 1.686 66.098 3.767V20.158C66.098 22.239 64.412 23.925 62.331 23.925Z" fill="#FAAF40"/>
<path d="M20.158 66.0975H3.76703C1.68603 66.0975 0 64.4115 0 62.3305C0 60.2495 1.68603 58.5635 3.76703 58.5635H20.158C22.239 58.5635 23.925 60.2495 23.925 62.3305C23.925 64.4115 22.239 66.0975 20.158 66.0975Z" fill="#FAAF40"/>
<path d="M32.511 36.2766C31.547 36.2766 30.583 35.9086 29.848 35.1726L18.258 23.5826C16.787 22.1126 16.787 19.7266 18.258 18.2556C19.73 16.7846 22.113 16.7846 23.585 18.2556L35.175 29.8456C36.646 31.3156 36.646 33.7016 35.175 35.1726C34.438 35.9086 33.474 36.2766 32.511 36.2766Z" fill="#FAAF40"/>
<path d="M20.9201 107.507C19.9561 107.507 18.9921 107.139 18.2571 106.403C16.7861 104.933 16.7861 102.547 18.2571 101.076L29.8471 89.4861C31.3181 88.0151 33.7021 88.0151 35.1741 89.4861C36.6451 90.9561 36.6451 93.3421 35.1741 94.8131L23.5841 106.403C22.8481 107.14 21.8841 107.507 20.9201 107.507Z" fill="#FAAF40"/>
<path d="M92.151 36.2766C91.187 36.2766 90.223 35.9086 89.488 35.1726C88.017 33.7026 88.017 31.3176 89.488 29.8456L101.077 18.2556C102.546 16.7846 104.932 16.7846 106.404 18.2556C107.875 19.7256 107.875 22.1106 106.404 23.5826L94.815 35.1726C94.08 35.9086 93.115 36.2766 92.151 36.2766Z" fill="#FAAF40"/>
<path d="M145.539 73.5372C145.526 73.5372 145.514 73.5392 145.501 73.5392C145.506 73.2862 145.539 73.0402 145.539 72.7862C145.539 52.7632 129.307 36.5312 109.284 36.5312C89.2611 36.5312 73.0292 52.7632 73.0292 72.7862C73.0292 72.8102 73.0331 72.8322 73.0331 72.8562C57.3271 73.5852 44.8071 86.5122 44.8071 102.399C44.8071 118.754 58.0652 132.012 74.4202 132.012H145.539C161.687 132.012 174.777 118.922 174.777 102.774C174.777 86.6272 161.687 73.5372 145.539 73.5372Z" fill="#42BFEC"/>
</svg>
