<svg width="117" height="119" viewBox="0 0 117 119" fill="none" xmlns="http://www.w3.org/2000/svg">
<path d="M83.232 92.0891C60.495 92.0891 42.064 73.657 42.064 50.921C42.064 28.184 60.496 9.75201 83.232 9.75201C86.861 9.75201 90.362 10.269 93.715 11.15C83.994 4.16102 72.105 0 59.219 0C26.513 0 0 26.513 0 59.219C0 91.925 26.513 118.438 59.219 118.438C86.209 118.438 108.938 100.364 116.073 75.672C108.558 85.626 96.665 92.0891 83.232 92.0891Z" fill="#FAAF40"/>
<path d="M94.308 24.6943L101.578 37.5723L116.073 40.5073L106.072 51.4023L107.759 66.0943L94.308 59.9503L80.856 66.0943L82.543 51.4023L72.542 40.5073L87.037 37.5723L94.308 24.6943Z" fill="#ADE0F3"/>
</svg>
