<svg width="125" height="125" viewBox="0 0 125 125" fill="none" xmlns="http://www.w3.org/2000/svg">
<path d="M91.3823 68.8731C95.2234 52.8203 85.3239 36.6932 69.2711 32.8521C53.2184 29.011 37.0912 38.9105 33.2501 54.9632C29.409 71.016 39.3085 87.1431 55.3612 90.9842C71.414 94.8253 87.5412 84.9258 91.3823 68.8731Z" fill="#FAAF40"/>
<path d="M62.33 23.925C60.249 23.925 58.563 22.239 58.563 20.158V3.767C58.563 1.686 60.249 0 62.33 0C64.411 0 66.097 1.686 66.097 3.767V20.158C66.097 22.239 64.411 23.925 62.33 23.925Z" fill="#FAAF40"/>
<path d="M62.33 124.659C60.249 124.659 58.563 122.973 58.563 120.892V104.501C58.563 102.42 60.249 100.734 62.33 100.734C64.411 100.734 66.097 102.42 66.097 104.501V120.892C66.097 122.973 64.411 124.659 62.33 124.659Z" fill="#FAAF40"/>
<path d="M120.892 66.0975H104.501C102.42 66.0975 100.734 64.4115 100.734 62.3305C100.734 60.2495 102.42 58.5635 104.501 58.5635H120.892C122.973 58.5635 124.659 60.2495 124.659 62.3305C124.659 64.4115 122.973 66.0975 120.892 66.0975Z" fill="#FAAF40"/>
<path d="M3.767 66.0975H20.158C22.239 66.0975 23.925 64.4115 23.925 62.3305C23.925 60.2495 22.239 58.5635 20.158 58.5635H3.767C1.686 58.5635 0 60.2495 0 62.3305C0 64.4115 1.686 66.0975 3.767 66.0975Z" fill="#FAAF40"/>
<path d="M32.51 36.2766C31.546 36.2766 30.5821 35.9086 29.8471 35.1726L18.2571 23.5826C16.7861 22.1126 16.7861 19.7266 18.2571 18.2556C19.7281 16.7846 22.1121 16.7846 23.5841 18.2556L35.1741 29.8456C36.6451 31.3156 36.6451 33.7016 35.1741 35.1726C34.4371 35.9086 33.473 36.2766 32.51 36.2766Z" fill="#FAAF40"/>
<path d="M103.739 107.507C102.775 107.507 101.811 107.139 101.076 106.403L89.487 94.8131C88.016 93.3421 88.016 90.9571 89.487 89.4861C90.958 88.0151 93.342 88.0151 94.814 89.4861L106.403 101.076C107.874 102.547 107.874 104.932 106.403 106.403C105.666 107.139 104.703 107.507 103.739 107.507Z" fill="#FAAF40"/>
<path d="M20.9201 107.507C19.9561 107.507 18.9921 107.139 18.2571 106.403C16.7861 104.933 16.7861 102.547 18.2571 101.076L29.8471 89.4861C31.3181 88.0151 33.7021 88.0151 35.1741 89.4861C36.6451 90.9561 36.6451 93.3421 35.1741 94.8131L23.5841 106.403C22.8471 107.139 21.8831 107.507 20.9201 107.507Z" fill="#FAAF40"/>
<path d="M92.15 36.2766C91.186 36.2766 90.222 35.9086 89.487 35.1726C88.016 33.7026 88.016 31.3176 89.487 29.8456L101.076 18.2556C102.545 16.7846 104.931 16.7846 106.403 18.2556C107.874 19.7256 107.874 22.1106 106.403 23.5826L94.814 35.1726C94.079 35.9086 93.114 36.2766 92.15 36.2766Z" fill="#FAAF40"/>
</svg>
